# xmcd
#
# Track frame offsets:
#	150
#	15005
#	26540
#	43400
#	58922
#	70547
#	84882
#	98370
#	109970
#	128997
#
# Disc length: 1864
#
# Revision: 3
# Processed by: cddbd v1.5.1PL0 Copyright (c) Steve Scherf et al.
# Submitted via: CDValet v3.31 - Copyright (c) 1997 Greg Leichner
# Normalized: r1:TDELIM( - );r2:TSWAP
#
DISCID=7307460a
DTITLE=Various Artist - All Time Country Classics
DYEAR=1900
DGENRE=
TTITLE0=Glen Campbell - Rhinestone Cowboy
TTITLE1=Mel McDaniel - Stand Up
TTITLE2=Gene Watson - Nothing Sure Looked Good On You
TTITLE3=Juice Newton - Queen Of Hearts
TTITLE4=Sonny James - It's Just A Matter of Time
TTITLE5=Glen Campbell - Can You Fool
TTITLE6=Mel McDaniel - Baby's Got Her Blue Jeans On
TTITLE7=Gene Watson - Should I come Home
TTITLE8=Juice Newton - Angel Of The Morning
TTITLE9=Sonny James - I'll Never Find Another You
EXTD=
EXTT0=
EXTT1=
EXTT2=
EXTT3=
EXTT4=
EXTT5=
EXTT6=
EXTT7=
EXTT8=
EXTT9=
PLAYORDER=
